<svg xmlns="http://www.w3.org/2000/svg" width="403.576" height="169.499" viewBox="0 0 403.576 169.499"><defs><style>.a{fill:#fff;}.b{fill:#a5cd39;}</style></defs>
<g transform="translate(0)">
<path className="a" d="M41.328,131.467a159.5,159.5,0,0,1-36.085-4.406c-4.57-1-5.243-2.2-5.243-4.9V3.386A3.535,3.535,0,0,1,3.55,0h20.5a3.392,3.392,0,0,1,3.386,3.386V32.7a118.911,118.911,0,0,1,13.891-1.183c28.638,0,42.548,16.768,42.548,43.367V88.1C83.876,115.555,68.783,131.467,41.328,131.467ZM56.421,74.882c0-11.87-3.04-20.664-15.075-20.664a131.952,131.952,0,0,0-13.891.837v52.871a93.314,93.314,0,0,0,13.891,1.02c12.034,0,15.075-8.812,15.075-20.846V74.882Z" transform="translate(0 0)"/>
<path className="a" d="M102.49,40.021c-5.972.437-16.95,2.549-23.213,5.917v66.252a3.548,3.548,0,0,1-3.386,3.55H55.39a3.692,3.692,0,0,1-3.55-3.55V31.1c0-1.857,1.693-2.585,3.386-3.386C65.95,22.6,84.538,17.3,101.652,17.3a3.4,3.4,0,0,1,3.386,3.386V36.781A3.115,3.115,0,0,1,102.49,40.021Z" transform="translate(42.541 14.197)"/>
<path className="a" d="M109.39,115.135H88.726a3.38,3.38,0,0,1-3.386-3.386v-90.3a3.392,3.392,0,0,1,3.386-3.386H109.39a3.392,3.392,0,0,1,3.386,3.386v90.3A3.392,3.392,0,0,1,109.39,115.135Z" transform="translate(70.031 14.82)"/>
<path className="a" d="M132.462,129.956H111.78a3.692,3.692,0,0,1-3.55-3.55V3.386A3.548,3.548,0,0,1,111.78,0h20.682a3.241,3.241,0,0,1,3.2,3.386V126.405A3.409,3.409,0,0,1,132.462,129.956Z" transform="translate(88.815)"/>
<path className="a" d="M154.982,129.956H134.3a3.692,3.692,0,0,1-3.55-3.55V3.386A3.548,3.548,0,0,1,134.3,0h20.682a3.241,3.241,0,0,1,3.2,3.386V126.405A3.409,3.409,0,0,1,154.982,129.956Z" transform="translate(107.296)"/>
<path className="a" d="M177.709,115.135H157.026a3.392,3.392,0,0,1-3.386-3.386v-90.3a3.392,3.392,0,0,1,3.386-3.386H177.69a3.392,3.392,0,0,1,3.386,3.386v90.3A3.376,3.376,0,0,1,177.709,115.135Z" transform="translate(126.08 14.82)"/>
<path className="a" d="M217.57,117.27c-27.455,0-42.53-17.114-42.53-44.041V61.359c0-26.945,15.075-44.059,42.53-44.059s42.366,17.114,42.366,44.059v11.87C259.935,100.156,245.025,117.27,217.57,117.27Zm15.093-55.911c0-13.727-5.243-20.664-15.075-20.664s-15.239,6.955-15.239,20.664v11.87c0,13.727,5.425,20.828,15.239,20.828,9.831,0,15.075-7.119,15.075-20.828Z" transform="translate(143.641 14.197)"/>
<path className="b" d="M139.515,91.487a16.367,16.367,0,1,0-16.367,16.367A16.356,16.356,0,0,0,139.515,91.487Z" transform="translate(87.625 61.645)"/>
<path className="b" d="M162.065,91.487A16.367,16.367,0,1,0,145.7,107.855,16.367,16.367,0,0,0,162.065,91.487Z" transform="translate(106.13 61.645)"/>
</g></svg>
